Coordinates
version=1
nRows=22
nColumns=24
inDegrees=yes

Units are S.I. units (second, meters, Newtons, ...)
Angles are in degrees.

endheader
time	pelvis_tilt	pelvis_list	pelvis_rotation	pelvis_tx	pelvis_ty	pelvis_tz	hip_flexion_r	hip_adduction_r	hip_rotation_r	knee_angle_r	ankle_angle_r	subtalar_angle_r	mtp_angle_r	hip_flexion_l	hip_adduction_l	hip_rotation_l	knee_angle_l	ankle_angle_l	subtalar_angle_l	mtp_angle_l	lumbar_extension	lumbar_bending	lumbar_rotation
      6.95000000	      1.72984113	      8.13759709	      2.17162851	      2.37795224	      1.05673187	     -0.11612331	      4.54526303	    -10.87184776	     -7.36640927	    -58.12051961	    -24.29120104	    -46.08011967	      0.00000000	      3.02952804	     14.32518462	      4.87201252	    -11.79028585	      8.89699934	    -17.15799257	      0.00000000	     -9.70786481	     -8.28694511	     -3.07530933
      6.96000000	      1.78787097	      7.75039357	      2.27881820	      2.38835042	      1.05866345	     -0.11578155	      5.85428383	    -10.23753255	     -6.69863067	    -58.29131049	    -22.78604523	    -46.06306956	      0.00000000	      2.01905916	     13.88197362	      5.20878979	    -11.17680380	      8.57655682	    -17.45532139	      0.00000000	    -10.06352858	     -7.80925376	     -3.22209021
      6.97000000	      1.81091269	      7.42685899	      2.40060500	      2.39862155	      1.06044142	     -0.11537675	      7.16536202	     -9.66831234	     -6.08664773	    -58.26945988	    -21.16769565	    -45.77790544	      0.00000000	      1.07888319	     13.49671200	      5.43649436	    -10.60306847	      8.26631340	    -17.70685705	      0.00000000	    -10.40465977	     -7.42244828	     -3.39212317
      6.98000000	      1.80514699	      7.17082487	      2.54914660	      2.40881419	      1.06206338	     -0.11494058	      8.45962440	     -9.18151295	     -5.55581493	    -58.04765286	    -19.41106145	    -45.26185292	      0.00000000	      0.19377135	     13.17583419	      5.58233378	    -10.06609013	      7.96922752	    -17.91154280	      0.00000000	    -10.72260032	     -7.12826233	     -3.60071056
      6.99000000	      1.77705669	      6.95998673	      2.71553690	      2.41889451	      1.06353047	     -0.11447513	      9.72789260	     -8.75293882	     -5.09492864	    -57.61527435	    -17.59618345	    -44.62655273	      0.00000000	     -0.61846864	     12.89784896	      5.63794464	     -9.61057966	      7.69773139	    -18.06237291	      0.00000000	    -11.04867512	     -6.89166621	     -3.86467492
      7.00000000	      1.72015361	      6.79220124	      2.89978739	      2.42894294	      1.06483227	     -0.11400288	     10.96536844	     -8.39067410	     -4.71271930	    -56.96523408	    -15.75345558	    -43.89016723	      0.00000000	     -1.38392229	     12.66103378	      5.66756119	     -9.18726961	      7.42571785	    -18.13333250	      0.00000000	    -11.34309756	     -6.71059317	     -4.14032807
      7.01000000	      1.64439909	      6.66511926	      3.10029189	      2.43896385	      1.06596300	     -0.11352094	     12.15482647	     -8.09615996	     -4.41127270	    -56.09283964	    -13.89843115	    -43.08495570	      0.00000000	     -2.10907213	     12.46158947	      5.68445993	     -8.80506218	      7.17822650	    -18.16993967	      0.00000000	    -11.62151105	     -6.58529190	     -4.44378231
      7.02000000	      1.54996889	      6.59164331	      3.31705826	      2.44896634	      1.06690525	     -0.11305587	     13.29357744	     -7.89399356	     -4.19691787	    -55.00789051	    -12.09030059	    -42.22864816	      0.00000000	     -2.79687579	     12.31286569	      5.69041023	     -8.46059586	      6.90515387	    -18.19288117	      0.00000000	    -11.88691139	     -6.51904486	     -4.81283356
      7.03000000	      1.44841732	      6.52133489	      3.51439527	      2.45901347	      1.06767471	     -0.11256873	     14.35894643	     -7.71434711	     -4.03001635	    -53.68964649	    -10.42441079	    -41.36966758	      0.00000000	     -3.48077230	     12.16394086	      5.75834206	     -8.11392063	      6.69225524	    -18.21365676	      0.00000000	    -12.12606991	     -6.45671610	     -5.13013189
      7.04000000	      1.34395413	      6.48862042	      3.70612693	      2.46908393	      1.06826618	     -0.11207176	     15.34378380	     -7.60395273	     -3.92662490	    -52.15461516	     -8.86454595	    -40.44710730	      0.00000000	     -4.15830001	     12.04794319	      5.86429333	     -7.77843278	      6.44688345	    -18.26623900	      0.00000000	    -12.35849053	     -6.43733885	     -5.46546789
      7.05000000	      1.25566286	      6.48459321	      3.87605258	      2.47920767	      1.06870186	     -0.11154811	     16.22114166	     -7.54537724	     -3.86775148	    -50.40058008	     -7.40894359	    -39.42731014	      0.00000000	     -4.86061422	     11.95512190	      6.03104073	     -7.43484924	      6.18195654	    -18.36189096	      0.00000000	    -12.59912005	     -6.44905335	     -5.78165761
      7.06000000	      1.19544564	      6.49798649	      4.02560733	      2.48940596	      1.06900734	     -0.11099805	     16.96783511	     -7.52598483	     -3.85919126	    -48.42386040	     -6.02187218	    -38.24892116	      0.00000000	     -5.60504480	     11.87216439	      6.26510660	     -7.07546665	      5.90597326	    -18.49942268	      0.00000000	    -12.85842783	     -6.47245737	     -6.06993055
      7.07000000	      1.14402240	      6.55136973	      4.14993155	      2.49967667	      1.06915483	     -0.11040773	     17.60735401	     -7.56832311	     -3.89049430	    -46.24055107	     -4.59794458	    -36.79616687	      0.00000000	     -6.36740247	     11.82360210	      6.53027401	     -6.70695579	      5.54814393	    -18.71092948	      0.00000000	    -13.11934496	     -6.53988099	     -6.35544202
      7.08000000	      1.18271416	      6.60325627	      4.24934664	      2.51007883	      1.06926640	     -0.10978226	     18.02849496	     -7.62086746	     -3.98598107	    -43.82045741	     -3.20745642	    -35.10168720	      0.00000000	     -7.25753776	     11.75820148	      6.88985154	     -6.29436636	      5.26456462	    -18.89632839	      0.00000000	    -13.46645184	     -6.59033137	     -6.57869586
      7.09000000	      1.17502637	      6.69170034	      4.33637232	      2.52058287	      1.06916907	     -0.10912873	     18.39747271	     -7.73793859	     -4.15381306	    -41.21230517	     -1.66699182	    -32.95784775	      0.00000000	     -8.10739821	     11.72634038	      7.24180631	     -5.87389656	      4.83895384	    -19.18249958	      0.00000000	    -13.75050823	     -6.68352374	     -6.84186242
      7.10000000	      1.22599251	      6.78769471	      4.39944685	      2.53126685	      1.06899665	     -0.10844705	     18.58011453	     -7.87118117	     -4.40835964	    -38.38575652	     -0.13164993	    -30.52815500	      0.00000000	     -9.05808321	     11.68908622	      7.64440829	     -5.40175273	      4.44928928	    -19.46185049	      0.00000000	    -14.08037280	     -6.77035832	     -7.06835226
      7.11000000	      1.29001439	      6.89980922	      4.44324277	      2.54214828	      1.06868616	     -0.10773569	     18.63603490	     -8.02675944	     -4.76397199	    -35.37230536	      1.42717364	    -27.81222402	      0.00000000	    -10.06139425	     11.65816029	      8.07992572	     -4.87867316	      4.04881185	    -19.74825770	      0.00000000	    -14.39857029	     -6.86844373	     -7.28229658
      7.12000000	      1.37342983	      7.04920523	      4.47173819	      2.55323643	      1.06823456	     -0.10700807	     18.57180929	     -8.22374510	     -5.24607600	    -32.20787372	      2.91676258	    -24.85832879	      0.00000000	    -11.11772680	     11.65462251	      8.48669647	     -4.31916325	      3.62469484	    -20.00673920	      0.00000000	    -14.71879146	     -6.99774993	     -7.51282137
      7.13000000	      1.46907462	      7.24115484	      4.48512414	      2.56454639	      1.06762065	     -0.10625090	     18.41556234	     -8.45583675	     -5.86425530	    -28.94352544	      4.28565300	    -21.73746792	      0.00000000	    -12.21111082	     11.68581867	      8.84754501	     -3.74256903	      3.21257300	    -20.21107450	      0.00000000	    -15.02834344	     -7.17348983	     -7.76348542
      7.14000000	      1.53496345	      7.44130293	      4.49490118	      2.57611601	      1.06677869	     -0.10546878	     18.22849311	     -8.67262739	     -6.60024978	    -25.63199629	      5.56226750	    -18.54054235	      0.00000000	    -13.29666295	     11.71911160	      9.20470107	     -3.15195364	      2.79795665	    -20.39242206	      0.00000000	    -15.26156103	     -7.35580641	     -8.01633790
      7.15000000	      1.58636459	      7.65733954	      4.50011862	      2.58791928	      1.06572664	     -0.10464890	     18.02506534	     -8.86967570	     -7.41414408	    -22.35007400	      6.67530117	    -15.38120000	      0.00000000	    -14.37429367	     11.76257702	      9.51965571	     -2.57353484	      2.40401923	    -20.53046621	      0.00000000	    -15.44446020	     -7.55630226	     -8.28758515
      7.16000000	      1.63241584	      7.87204397	      4.50368303	      2.59992500	      1.06449076	     -0.10376542	     17.81068466	     -9.01260523	     -8.20581827	    -19.14983731	      7.57814581	    -12.43592461	      0.00000000	    -15.43180607	     11.79843064	      9.78772885	     -2.04368033	      2.04992908	    -20.60331615	      0.00000000	    -15.59236946	     -7.75936925	     -8.56342732
